<svg width="119" height="127" viewBox="0 0 119 127" fill="none" xmlns="http://www.w3.org/2000/svg">
<path opacity="0.2" d="M12.0757 94.864L11.3478 95.5497L11.3531 95.5552L12.0757 94.864ZM9.99572 51.08L10.9149 51.4739L10.9162 51.4708L9.99572 51.08ZM23.0997 33.608L22.4966 32.8103L22.4919 32.8139L23.0997 33.608ZM63.3477 78.224L64.2669 78.6179L64.2682 78.6148L63.3477 78.224ZM50.1397 95.592L49.5366 94.7943L49.5319 94.7979L50.1397 95.592ZM43.8997 84.776L44.634 85.4549L43.8997 84.776ZM51.6997 70.944L52.6508 71.2531L51.6997 70.944ZM50.9717 42.968L50.1986 43.6023L50.2075 43.6131L50.2167 43.6237L50.9717 42.968ZM29.4437 44.424L30.1711 45.1102L29.4437 44.424ZM21.5397 58.256L22.4908 58.5651L21.5397 58.256ZM22.2677 86.336L23.0228 85.6803L22.2677 86.336ZM30.7957 101.04C23.1075 101.04 17.1496 98.7217 12.7984 94.1728L11.3531 95.5552C16.1539 100.574 22.6759 103.04 30.7957 103.04V101.04ZM12.8036 94.1783C8.51894 89.63 6.31572 83.2475 6.31572 74.896H4.31572C4.31572 83.6005 6.61917 90.53 11.3478 95.5497L12.8036 94.1783ZM6.31572 74.896C6.31572 66.4224 7.85263 58.6191 10.9149 51.4739L9.07657 50.6861C5.89881 58.1009 4.31572 66.1749 4.31572 74.896H6.31572ZM10.9162 51.4708C13.9775 44.2598 18.2459 38.5826 23.7075 34.4021L22.4919 32.8139C16.7216 37.2307 12.254 43.2016 9.07523 50.6892L10.9162 51.4708ZM23.7028 34.4057C29.2088 30.2426 35.5128 28.16 42.6517 28.16V26.16C35.092 26.16 28.3613 28.376 22.4966 32.8103L23.7028 34.4057ZM42.6517 28.16C50.3404 28.16 56.2598 30.4783 60.5398 35.0217L61.9956 33.6503C57.2623 28.6257 50.771 26.16 42.6517 26.16V28.16ZM60.5398 35.0217C64.8245 39.57 67.0277 45.9525 67.0277 54.304H69.0277C69.0277 45.5995 66.7243 38.67 61.9956 33.6503L60.5398 35.0217ZM67.0277 54.304C67.0277 62.7775 65.4908 70.6167 62.4272 77.8332L64.2682 78.6148C67.4446 71.1326 69.0277 63.0252 69.0277 54.304H67.0277ZM62.4286 77.8301C59.3693 84.9685 55.0683 90.6118 49.5366 94.7943L50.7428 96.3897C56.5818 91.9748 61.0862 86.0395 64.2669 78.6179L62.4286 77.8301ZM49.5319 94.7979C44.0958 98.9589 37.8629 101.04 30.7957 101.04V103.04C38.2885 103.04 44.9516 100.822 50.7475 96.3861L49.5319 94.7979ZM31.9397 91.288C36.8224 91.288 41.0671 89.3129 44.634 85.4549L43.1654 84.0971C39.9376 87.5884 36.2091 89.288 31.9397 89.288V91.288ZM44.634 85.4549C48.1444 81.6579 50.8107 76.9146 52.6508 71.2531L50.7487 70.6349C48.9834 76.0667 46.4497 80.5448 43.1654 84.0971L44.634 85.4549ZM52.6508 71.2531C54.4829 65.6158 55.4037 60.0689 55.4037 54.616H53.4037C53.4037 59.8405 52.5219 65.1789 50.7487 70.6349L52.6508 71.2531ZM55.4037 54.616C55.4037 49.355 54.2327 45.1979 51.7268 42.3123L50.2167 43.6237C52.2868 46.0074 53.4037 49.6157 53.4037 54.616H55.4037ZM51.7448 42.3337C49.303 39.3577 45.8412 37.912 41.5077 37.912V39.912C45.3556 39.912 48.2031 41.1703 50.1986 43.6023L51.7448 42.3337ZM41.5077 37.912C36.6262 37.912 32.3502 39.8859 28.7163 43.7378L30.1711 45.1102C33.4706 41.6128 37.2372 39.912 41.5077 39.912V37.912ZM28.7163 43.7378C25.1336 47.5355 22.43 52.2812 20.5887 57.9469L22.4908 58.5651C24.2547 53.1374 26.8205 48.6618 30.1711 45.1102L28.7163 43.7378ZM20.5887 57.9469C18.7566 63.5842 17.8357 69.1311 17.8357 74.584H19.8357C19.8357 69.3595 20.7175 64.0211 22.4908 58.5651L20.5887 57.9469ZM17.8357 74.584C17.8357 79.9103 19.005 84.104 21.5127 86.9917L23.0228 85.6803C20.9545 83.2986 19.8357 79.6577 19.8357 74.584H17.8357ZM21.5127 86.9917C24.0273 89.8873 27.5511 91.288 31.9397 91.288V89.288C28.0083 89.288 25.0841 88.054 23.0228 85.6803L21.5127 86.9917ZM108.171 28.2L109.151 28.3961L109.391 27.2H108.171V28.2ZM93.6109 101V102H94.4307L94.5915 101.196L93.6109 101ZM80.0909 101L79.1103 100.804L78.8715 102H80.0909V101ZM92.3629 39.536L93.3436 39.7318L93.5823 38.536H92.3629V39.536ZM76.8669 39.536L75.8867 39.3382L75.6449 40.536H76.8669V39.536ZM79.1549 28.2V27.2H78.3366L78.1747 28.0021L79.1549 28.2ZM107.19 28.0039L92.6303 100.804L94.5915 101.196L109.151 28.3961L107.19 28.0039ZM93.6109 100H80.0909V102H93.6109V100ZM81.0715 101.196L93.3436 39.7318L91.3823 39.3402L79.1103 100.804L81.0715 101.196ZM92.3629 38.536H76.8669V40.536H92.3629V38.536ZM77.8471 39.7338L80.1351 28.3978L78.1747 28.0021L75.8867 39.3382L77.8471 39.7338ZM79.1549 29.2H108.171V27.2H79.1549V29.2Z" fill="white"/>
<path d="M66.5 62H69" stroke="white" stroke-width="2.75" stroke-linecap="round" stroke-linejoin="round"/>
<path d="M89 39.5V42" stroke="white" stroke-width="2.75" stroke-linecap="round" stroke-linejoin="round"/>
<path d="M109 62H111.5" stroke="white" stroke-width="2.75" stroke-linecap="round" stroke-linejoin="round"/>
<path d="M73 46L74.75 47.75" stroke="white" stroke-width="2.75" stroke-linecap="round" stroke-linejoin="round"/>
<path d="M105 46L103.25 47.75" stroke="white" stroke-width="2.75" stroke-linecap="round" stroke-linejoin="round"/>
<path d="M79 62C79 59.3478 80.0536 56.8043 81.9289 54.9289C83.8043 53.0536 86.3478 52 89 52C91.6522 52 94.1957 53.0536 96.0711 54.9289C97.9464 56.8043 99 59.3478 99 62" stroke="white" stroke-width="2.75" stroke-linecap="round" stroke-linejoin="round"/>
<path d="M66.5 72H111.5" stroke="white" stroke-width="2.75" stroke-linecap="round" stroke-linejoin="round"/>
<path d="M66.5 82H111.5" stroke="white" stroke-width="2.75" stroke-linecap="round" stroke-linejoin="round"/>
</svg>
