<svg width="65" height="27" viewBox="0 0 65 27" fill="none" xmlns="http://www.w3.org/2000/svg">
<mask id="path-1-outside-1_964_6088" maskUnits="userSpaceOnUse" x="0.0136348" y="-1.36562" width="65.6128" height="32.0431" fill="black">
<rect fill="white" x="0.0136348" y="-1.36562" width="65.6128" height="32.0431"/>
<path d="M9.99463 8.53387C9.71504 8.5682 9.48867 8.58932 9.31552 8.59724L8.19705 8.71456C6.97215 8.86496 6.36034 9.08683 6.36162 9.38016C6.4415 9.37035 6.51496 9.41469 6.582 9.51318C6.66235 9.61004 6.70299 9.76513 6.70392 9.97847C6.70567 10.3785 6.58046 10.6873 6.32831 10.905C6.08941 11.1078 5.82351 11.2272 5.5306 11.2631C5.17111 11.3073 4.91099 11.2258 4.75024 11.0188C4.58942 10.7984 4.50831 10.5282 4.50692 10.2082C4.50453 9.66154 4.72212 9.15457 5.15968 8.68729C5.59719 8.20668 6.19539 7.91979 6.9543 7.82661L13.8044 6.98552L6.97413 21.5314C7.34693 21.4856 7.63321 21.4571 7.83298 21.4459L8.89154 21.336C9.45073 21.2673 9.9033 21.1851 10.2492 21.0892C10.6084 20.9784 10.8476 20.829 10.9666 20.641C10.8734 20.6524 10.7867 20.6164 10.7064 20.5328C10.6394 20.4343 10.6054 20.2784 10.6044 20.0651C10.6027 19.6651 10.7212 19.3571 10.9601 19.141C11.1989 18.9249 11.4781 18.7972 11.7976 18.758C12.1438 18.7155 12.3973 18.7978 12.558 19.0048C12.7321 19.2102 12.8198 19.4729 12.8212 19.7929C12.8228 20.1396 12.7178 20.506 12.5063 20.8921C12.2949 21.2783 11.99 21.6159 11.5916 21.9049C11.2065 22.1923 10.7677 22.3663 10.2751 22.4268L3.06545 23.312L9.99463 8.53387Z"/>
<path d="M15.3814 21.9198C14.7423 21.9983 14.2222 21.8621 13.821 21.5111C13.4332 21.1585 13.2375 20.5822 13.234 19.7823C13.2325 19.4489 13.2839 19.0091 13.3881 18.4626L14.7181 11.876L17.594 11.5229L16.1857 18.4993C16.1467 18.7042 16.1275 18.8934 16.1283 19.0667C16.1306 19.6134 16.3315 19.8622 16.731 19.8131C17.1038 19.7673 17.4226 19.5748 17.6876 19.2354C17.9525 18.8827 18.1636 18.4232 18.321 17.857L19.651 11.2703L22.5269 10.9172L21.1186 17.8937C21.0662 18.1002 21.0405 18.3168 21.0415 18.5435C21.0427 18.8101 21.1034 18.9961 21.2238 19.1014C21.3574 19.1917 21.5707 19.2189 21.8636 19.1829C22.2364 19.1371 22.5552 18.9379 22.8201 18.5852C23.0983 18.2309 23.3161 17.7773 23.4736 17.2243L24.3123 17.1213C23.826 18.6218 23.2178 19.677 22.4878 20.2869C21.7711 20.8818 21.0466 21.2243 20.3143 21.3142C19.7418 21.3845 19.2817 21.2809 18.9342 21.0034C18.5999 20.7242 18.3981 20.2754 18.3288 19.6569C17.8794 20.4459 17.4022 21.0047 16.8975 21.3335C16.406 21.6606 15.9006 21.8561 15.3814 21.9198Z"/>
<path d="M27.0436 25.3705C26.4045 25.449 25.8712 25.3477 25.4437 25.0667C25.0162 24.7856 24.801 24.3318 24.7983 23.7051C24.795 22.9452 25.0985 22.2942 25.709 21.7524C26.3194 21.2238 27.0966 20.7482 28.0406 20.3255L28.2756 19.2361C27.5998 20.0528 26.8026 20.5175 25.8839 20.6303C25.125 20.7235 24.4914 20.5411 23.9832 20.0833C23.475 19.6254 23.2185 18.8431 23.2137 17.7365C23.2094 16.7498 23.3979 15.6928 23.7793 14.5654C24.174 13.423 24.7558 12.4311 25.5247 11.5896C26.307 10.7332 27.2373 10.2387 28.3157 10.1063C28.8616 10.0393 29.2681 10.0828 29.5352 10.2367C29.8023 10.3907 29.9365 10.621 29.9379 10.9277L29.9384 11.0477L30.1535 9.98073L33.0294 9.62762L31.0927 19.1503C31.7309 18.8585 32.2421 18.4756 32.6263 18.0015C33.0106 17.5274 33.334 16.854 33.5966 15.9814L34.4354 15.8784C34.0811 17.1092 33.5989 18.0422 32.9889 18.6773C32.3789 19.2992 31.6882 19.7575 30.9168 20.0524L30.6235 21.5291C30.3629 22.8551 29.9074 23.7982 29.2571 24.3583C28.6069 24.9317 27.869 25.2691 27.0436 25.3705ZM27.1736 18.5309C27.4798 18.4933 27.7921 18.3149 28.1104 17.9957C28.4287 17.6765 28.6467 17.2695 28.7645 16.7748L29.7623 11.9098C29.7616 11.7498 29.6943 11.5979 29.5605 11.4543C29.4266 11.2973 29.2199 11.236 28.9403 11.2703C28.4077 11.3357 27.9297 11.7079 27.5064 12.3868C27.0831 13.0525 26.7535 13.84 26.5176 14.7494C26.2818 15.6455 26.1653 16.4269 26.1682 17.0936C26.1711 17.7602 26.2662 18.1754 26.4534 18.3392C26.6539 18.5014 26.894 18.5653 27.1736 18.5309ZM26.5774 23.8669C26.8037 23.8391 27.0228 23.6588 27.2344 23.326C27.4461 22.9932 27.6106 22.5327 27.728 21.9447L27.8453 21.35C26.5426 21.9902 25.8927 22.637 25.8955 23.2903C25.8963 23.4636 25.9568 23.6096 26.0773 23.7282C26.1977 23.8468 26.3644 23.8931 26.5774 23.8669Z"/>
<path d="M36.4654 19.3311C35.4801 19.452 34.7134 19.2927 34.1654 18.8531C33.6172 18.4001 33.3407 17.627 33.336 16.5336C33.332 15.6136 33.5073 14.5782 33.8619 13.4275C34.2166 12.2767 34.7982 11.2514 35.6069 10.3517C36.4155 9.43864 37.4456 8.90528 38.6971 8.75162C40.1617 8.57179 40.8968 9.12187 40.9023 10.4019C40.9056 11.1485 40.6956 11.8613 40.2723 12.5403C39.8489 13.2193 39.2853 13.7954 38.5813 14.2687C37.8773 14.7287 37.126 15.0344 36.3274 15.1858C36.3025 15.5891 36.2903 15.8574 36.2909 15.9907C36.2938 16.644 36.4089 17.0768 36.6363 17.289C36.8636 17.4879 37.2302 17.5563 37.7362 17.4941C38.4551 17.4059 39.0669 17.164 39.5714 16.7685C40.0891 16.3715 40.6528 15.7953 41.2623 15.0401L41.9413 14.9568C40.4742 17.6049 38.6489 19.063 36.4654 19.3311ZM36.483 14.2062C36.9755 14.1191 37.4407 13.8885 37.8787 13.5146C38.33 13.139 38.6877 12.6882 38.9518 12.1622C39.2292 11.6345 39.3668 11.0973 39.3644 10.5507C39.362 10.004 39.1944 9.75112 38.8615 9.79199C38.3822 9.85084 37.9114 10.3289 37.4491 11.2261C37.0001 12.1217 36.678 13.115 36.483 14.2062Z"/>
<path d="M44.1301 18.39C43.1448 18.5109 42.3782 18.3516 41.8301 17.912C41.2819 17.459 41.0055 16.6858 41.0007 15.5925C40.9967 14.6725 41.172 13.6371 41.5267 12.4863C41.8813 11.3355 42.463 10.3103 43.2716 9.41058C44.0803 8.49753 45.1103 7.96417 46.3619 7.8105C47.8264 7.63068 48.5615 8.18076 48.5671 9.46075C48.5703 10.2074 48.3603 10.9202 47.937 11.5992C47.5137 12.2782 46.95 12.8543 46.2461 13.3276C45.542 13.7876 44.7907 14.0933 43.9921 14.2447C43.9672 14.648 43.9551 14.9163 43.9557 15.0496C43.9585 15.7029 44.0736 16.1357 44.301 16.3479C44.5283 16.5468 44.895 16.6152 45.4009 16.553C46.1199 16.4648 46.7316 16.2229 47.2361 15.8274C47.7539 15.4304 48.3175 14.8542 48.927 14.099L49.606 14.0156C48.1389 16.6637 46.3136 18.1218 44.1301 18.39ZM44.1477 13.2651C44.6402 13.1779 45.1054 12.9474 45.5434 12.5734C45.9947 12.1979 46.3524 11.7471 46.6165 11.221C46.894 10.6934 47.0315 10.1562 47.0291 9.60957C47.0267 9.0629 46.8591 8.81001 46.5263 8.85088C46.0469 8.90973 45.5761 9.38776 45.1138 10.285C44.6648 11.1805 44.3427 12.1739 44.1477 13.2651Z"/>
<path d="M50.2528 7.51285L53.1287 7.15974L52.8745 8.43161C53.3254 7.97603 53.7301 7.6195 54.0887 7.36203C54.4605 7.10293 54.8595 6.94722 55.2856 6.89491C55.7116 6.84259 56.0451 6.94839 56.286 7.21229C56.5403 7.47456 56.6683 7.81236 56.6701 8.22569C56.6718 8.61236 56.5468 8.96788 56.2951 9.29228C56.0434 9.61667 55.6912 9.80665 55.2386 9.86223C54.9457 9.8982 54.7456 9.85606 54.6385 9.7358C54.5447 9.60058 54.4706 9.40291 54.4162 9.14278C54.3755 8.97435 54.335 8.85259 54.2947 8.7775C54.2544 8.7024 54.181 8.67139 54.0745 8.68447C53.7949 8.7188 53.5555 8.80823 53.3563 8.95275C53.1704 9.0823 52.9249 9.30588 52.6199 9.62347L51.0554 17.4196L48.1795 17.7727L50.2528 7.51285Z"/>
<path d="M58.4248 16.6348C57.7857 16.7133 57.2656 16.577 56.8644 16.2261C56.4766 15.8735 56.2809 15.2972 56.2774 14.4972C56.2759 14.1639 56.3273 13.724 56.4315 13.1776L58.5247 2.8953L61.4787 2.13238L59.2291 13.2143C59.1767 13.4208 59.151 13.6374 59.152 13.8641C59.1532 14.1307 59.2139 14.3167 59.3343 14.422C59.4679 14.5123 59.6812 14.5395 59.9741 14.5035C60.3602 14.4561 60.719 14.252 61.0504 13.8911C61.3818 13.5169 61.6196 13.0608 61.7638 12.5229L62.6026 12.4199C62.1163 13.9203 61.4881 14.978 60.7182 15.5928C59.9481 16.1943 59.1837 16.5416 58.4248 16.6348Z"/>
</mask>
<path d="M9.99463 8.53387C9.71504 8.5682 9.48867 8.58932 9.31552 8.59724L8.19705 8.71456C6.97215 8.86496 6.36034 9.08683 6.36162 9.38016C6.4415 9.37035 6.51496 9.41469 6.582 9.51318C6.66235 9.61004 6.70299 9.76513 6.70392 9.97847C6.70567 10.3785 6.58046 10.6873 6.32831 10.905C6.08941 11.1078 5.82351 11.2272 5.5306 11.2631C5.17111 11.3073 4.91099 11.2258 4.75024 11.0188C4.58942 10.7984 4.50831 10.5282 4.50692 10.2082C4.50453 9.66154 4.72212 9.15457 5.15968 8.68729C5.59719 8.20668 6.19539 7.91979 6.9543 7.82661L13.8044 6.98552L6.97413 21.5314C7.34693 21.4856 7.63321 21.4571 7.83298 21.4459L8.89154 21.336C9.45073 21.2673 9.9033 21.1851 10.2492 21.0892C10.6084 20.9784 10.8476 20.829 10.9666 20.641C10.8734 20.6524 10.7867 20.6164 10.7064 20.5328C10.6394 20.4343 10.6054 20.2784 10.6044 20.0651C10.6027 19.6651 10.7212 19.3571 10.9601 19.141C11.1989 18.9249 11.4781 18.7972 11.7976 18.758C12.1438 18.7155 12.3973 18.7978 12.558 19.0048C12.7321 19.2102 12.8198 19.4729 12.8212 19.7929C12.8228 20.1396 12.7178 20.506 12.5063 20.8921C12.2949 21.2783 11.99 21.6159 11.5916 21.9049C11.2065 22.1923 10.7677 22.3663 10.2751 22.4268L3.06545 23.312L9.99463 8.53387Z" stroke="white" stroke-width="3" mask="url(#path-1-outside-1_964_6088)"/>
<path d="M15.3814 21.9198C14.7423 21.9983 14.2222 21.8621 13.821 21.5111C13.4332 21.1585 13.2375 20.5822 13.234 19.7823C13.2325 19.4489 13.2839 19.0091 13.3881 18.4626L14.7181 11.876L17.594 11.5229L16.1857 18.4993C16.1467 18.7042 16.1275 18.8934 16.1283 19.0667C16.1306 19.6134 16.3315 19.8622 16.731 19.8131C17.1038 19.7673 17.4226 19.5748 17.6876 19.2354C17.9525 18.8827 18.1636 18.4232 18.321 17.857L19.651 11.2703L22.5269 10.9172L21.1186 17.8937C21.0662 18.1002 21.0405 18.3168 21.0415 18.5435C21.0427 18.8101 21.1034 18.9961 21.2238 19.1014C21.3574 19.1917 21.5707 19.2189 21.8636 19.1829C22.2364 19.1371 22.5552 18.9379 22.8201 18.5852C23.0983 18.2309 23.3161 17.7773 23.4736 17.2243L24.3123 17.1213C23.826 18.6218 23.2178 19.677 22.4878 20.2869C21.7711 20.8818 21.0466 21.2243 20.3143 21.3142C19.7418 21.3845 19.2817 21.2809 18.9342 21.0034C18.5999 20.7242 18.3981 20.2754 18.3288 19.6569C17.8794 20.4459 17.4022 21.0047 16.8975 21.3335C16.406 21.6606 15.9006 21.8561 15.3814 21.9198Z" stroke="white" stroke-width="3" mask="url(#path-1-outside-1_964_6088)"/>
<path d="M27.0436 25.3705C26.4045 25.449 25.8712 25.3477 25.4437 25.0667C25.0162 24.7856 24.801 24.3318 24.7983 23.7051C24.795 22.9452 25.0985 22.2942 25.709 21.7524C26.3194 21.2238 27.0966 20.7482 28.0406 20.3255L28.2756 19.2361C27.5998 20.0528 26.8026 20.5175 25.8839 20.6303C25.125 20.7235 24.4914 20.5411 23.9832 20.0833C23.475 19.6254 23.2185 18.8431 23.2137 17.7365C23.2094 16.7498 23.3979 15.6928 23.7793 14.5654C24.174 13.423 24.7558 12.4311 25.5247 11.5896C26.307 10.7332 27.2373 10.2387 28.3157 10.1063C28.8616 10.0393 29.2681 10.0828 29.5352 10.2367C29.8023 10.3907 29.9365 10.621 29.9379 10.9277L29.9384 11.0477L30.1535 9.98073L33.0294 9.62762L31.0927 19.1503C31.7309 18.8585 32.2421 18.4756 32.6263 18.0015C33.0106 17.5274 33.334 16.854 33.5966 15.9814L34.4354 15.8784C34.0811 17.1092 33.5989 18.0422 32.9889 18.6773C32.3789 19.2992 31.6882 19.7575 30.9168 20.0524L30.6235 21.5291C30.3629 22.8551 29.9074 23.7982 29.2571 24.3583C28.6069 24.9317 27.869 25.2691 27.0436 25.3705ZM27.1736 18.5309C27.4798 18.4933 27.7921 18.3149 28.1104 17.9957C28.4287 17.6765 28.6467 17.2695 28.7645 16.7748L29.7623 11.9098C29.7616 11.7498 29.6943 11.5979 29.5605 11.4543C29.4266 11.2973 29.2199 11.236 28.9403 11.2703C28.4077 11.3357 27.9297 11.7079 27.5064 12.3868C27.0831 13.0525 26.7535 13.84 26.5176 14.7494C26.2818 15.6455 26.1653 16.4269 26.1682 17.0936C26.1711 17.7602 26.2662 18.1754 26.4534 18.3392C26.6539 18.5014 26.894 18.5653 27.1736 18.5309ZM26.5774 23.8669C26.8037 23.8391 27.0228 23.6588 27.2344 23.326C27.4461 22.9932 27.6106 22.5327 27.728 21.9447L27.8453 21.35C26.5426 21.9902 25.8927 22.637 25.8955 23.2903C25.8963 23.4636 25.9568 23.6096 26.0773 23.7282C26.1977 23.8468 26.3644 23.8931 26.5774 23.8669Z" stroke="white" stroke-width="3" mask="url(#path-1-outside-1_964_6088)"/>
<path d="M36.4654 19.3311C35.4801 19.452 34.7134 19.2927 34.1654 18.8531C33.6172 18.4001 33.3407 17.627 33.336 16.5336C33.332 15.6136 33.5073 14.5782 33.8619 13.4275C34.2166 12.2767 34.7982 11.2514 35.6069 10.3517C36.4155 9.43864 37.4456 8.90528 38.6971 8.75162C40.1617 8.57179 40.8968 9.12187 40.9023 10.4019C40.9056 11.1485 40.6956 11.8613 40.2723 12.5403C39.8489 13.2193 39.2853 13.7954 38.5813 14.2687C37.8773 14.7287 37.126 15.0344 36.3274 15.1858C36.3025 15.5891 36.2903 15.8574 36.2909 15.9907C36.2938 16.644 36.4089 17.0768 36.6363 17.289C36.8636 17.4879 37.2302 17.5563 37.7362 17.4941C38.4551 17.4059 39.0669 17.164 39.5714 16.7685C40.0891 16.3715 40.6528 15.7953 41.2623 15.0401L41.9413 14.9568C40.4742 17.6049 38.6489 19.063 36.4654 19.3311ZM36.483 14.2062C36.9755 14.1191 37.4407 13.8885 37.8787 13.5146C38.33 13.139 38.6877 12.6882 38.9518 12.1622C39.2292 11.6345 39.3668 11.0973 39.3644 10.5507C39.362 10.004 39.1944 9.75112 38.8615 9.79199C38.3822 9.85084 37.9114 10.3289 37.4491 11.2261C37.0001 12.1217 36.678 13.115 36.483 14.2062Z" stroke="white" stroke-width="3" mask="url(#path-1-outside-1_964_6088)"/>
<path d="M44.1301 18.39C43.1448 18.5109 42.3782 18.3516 41.8301 17.912C41.2819 17.459 41.0055 16.6858 41.0007 15.5925C40.9967 14.6725 41.172 13.6371 41.5267 12.4863C41.8813 11.3355 42.463 10.3103 43.2716 9.41058C44.0803 8.49753 45.1103 7.96417 46.3619 7.8105C47.8264 7.63068 48.5615 8.18076 48.5671 9.46075C48.5703 10.2074 48.3603 10.9202 47.937 11.5992C47.5137 12.2782 46.95 12.8543 46.2461 13.3276C45.542 13.7876 44.7907 14.0933 43.9921 14.2447C43.9672 14.648 43.9551 14.9163 43.9557 15.0496C43.9585 15.7029 44.0736 16.1357 44.301 16.3479C44.5283 16.5468 44.895 16.6152 45.4009 16.553C46.1199 16.4648 46.7316 16.2229 47.2361 15.8274C47.7539 15.4304 48.3175 14.8542 48.927 14.099L49.606 14.0156C48.1389 16.6637 46.3136 18.1218 44.1301 18.39ZM44.1477 13.2651C44.6402 13.1779 45.1054 12.9474 45.5434 12.5734C45.9947 12.1979 46.3524 11.7471 46.6165 11.221C46.894 10.6934 47.0315 10.1562 47.0291 9.60957C47.0267 9.0629 46.8591 8.81001 46.5263 8.85088C46.0469 8.90973 45.5761 9.38776 45.1138 10.285C44.6648 11.1805 44.3427 12.1739 44.1477 13.2651Z" stroke="white" stroke-width="3" mask="url(#path-1-outside-1_964_6088)"/>
<path d="M50.2528 7.51285L53.1287 7.15974L52.8745 8.43161C53.3254 7.97603 53.7301 7.6195 54.0887 7.36203C54.4605 7.10293 54.8595 6.94722 55.2856 6.89491C55.7116 6.84259 56.0451 6.94839 56.286 7.21229C56.5403 7.47456 56.6683 7.81236 56.6701 8.22569C56.6718 8.61236 56.5468 8.96788 56.2951 9.29228C56.0434 9.61667 55.6912 9.80665 55.2386 9.86223C54.9457 9.8982 54.7456 9.85606 54.6385 9.7358C54.5447 9.60058 54.4706 9.40291 54.4162 9.14278C54.3755 8.97435 54.335 8.85259 54.2947 8.7775C54.2544 8.7024 54.181 8.67139 54.0745 8.68447C53.7949 8.7188 53.5555 8.80823 53.3563 8.95275C53.1704 9.0823 52.9249 9.30588 52.6199 9.62347L51.0554 17.4196L48.1795 17.7727L50.2528 7.51285Z" stroke="white" stroke-width="3" mask="url(#path-1-outside-1_964_6088)"/>
<path d="M58.4248 16.6348C57.7857 16.7133 57.2656 16.577 56.8644 16.2261C56.4766 15.8735 56.2809 15.2972 56.2774 14.4972C56.2759 14.1639 56.3273 13.724 56.4315 13.1776L58.5247 2.8953L61.4787 2.13238L59.2291 13.2143C59.1767 13.4208 59.151 13.6374 59.152 13.8641C59.1532 14.1307 59.2139 14.3167 59.3343 14.422C59.4679 14.5123 59.6812 14.5395 59.9741 14.5035C60.3602 14.4561 60.719 14.252 61.0504 13.8911C61.3818 13.5169 61.6196 13.0608 61.7638 12.5229L62.6026 12.4199C62.1163 13.9203 61.4881 14.978 60.7182 15.5928C59.9481 16.1943 59.1837 16.5416 58.4248 16.6348Z" stroke="white" stroke-width="3" mask="url(#path-1-outside-1_964_6088)"/>
</svg>
